
<svg id="Layer_2" xmlns="http://www.w3.org/2000/svg" version="1.1" viewBox="0 0 321.7 54">
  <!-- Generator: Adobe Illustrator 29.8.1, SVG Export Plug-In . SVG Version: 2.1.1 Build 2)  -->
  <defs>
    <style>
      .st0 {
        isolation: isolate;
      }

      .st1 {
        fill: lime;
      }
    </style>
  </defs>
  <g id="Layer_1-2">
    <g>
      <g class="st0">
        <path d="M147.8,7.3v33.5h-6.7v-21.8l-9,21.8h-5.1l-9-21.8v21.8h-6.7V7.3h7.6l10.7,24.9,10.7-24.9h7.6Z"/>
        <path d="M179.5,14.2v26.6h-6.8v-3.4c-.9,1.2-2,2.1-3.4,2.7-1.4.7-2.9,1-4.5,1s-3.9-.4-5.5-1.3c-1.6-.9-2.9-2.2-3.8-3.9-.9-1.7-1.4-3.8-1.4-6.1v-15.6h6.7v14.6c0,2.1.5,3.7,1.6,4.9,1.1,1.1,2.5,1.7,4.3,1.7s3.3-.6,4.4-1.7c1.1-1.1,1.6-2.8,1.6-4.9v-14.6h6.8Z"/>
        <path d="M192.8,5.3v35.5h-6.7V5.3h6.7Z"/>
        <path d="M207.3,19.7v12.9c0,.9.2,1.5.6,1.9.4.4,1.2.6,2.2.6h3.1v5.7h-4.2c-5.7,0-8.5-2.8-8.5-8.3v-12.8h-3.2v-5.5h3.2v-6.6h6.8v6.6h6v5.5h-6Z"/>
        <path d="M218.5,9.9c-.8-.8-1.2-1.7-1.2-2.8s.4-2.1,1.2-2.8c.8-.8,1.8-1.1,3-1.1s2.2.4,3,1.1,1.2,1.7,1.2,2.8-.4,2.1-1.2,2.8-1.8,1.1-3,1.1-2.2-.4-3-1.1ZM224.8,14.2v26.6h-6.7V14.2h6.7Z"/>
        <path d="M241.7,15c1.5-.8,3.3-1.2,5.2-1.2s4.3.6,6.2,1.7c1.8,1.1,3.3,2.7,4.4,4.8,1.1,2.1,1.6,4.5,1.6,7.2s-.5,5.1-1.6,7.2c-1.1,2.1-2.5,3.7-4.4,4.9-1.8,1.2-3.9,1.7-6.2,1.7s-3.7-.4-5.2-1.2c-1.5-.8-2.7-1.8-3.6-3v16.5h-6.7V14.2h6.7v3.8c.9-1.2,2.1-2.2,3.6-3ZM251.2,23.3c-.7-1.2-1.5-2.1-2.6-2.7-1.1-.6-2.2-.9-3.5-.9s-2.4.3-3.4.9c-1.1.6-1.9,1.5-2.6,2.7-.7,1.2-1,2.6-1,4.2s.3,3,1,4.2c.7,1.2,1.5,2.1,2.6,2.7,1.1.6,2.2.9,3.4.9s2.4-.3,3.5-1c1.1-.6,1.9-1.6,2.6-2.7.7-1.2,1-2.6,1-4.2s-.3-3-1-4.2Z"/>
        <path d="M270.7,5.3v35.5h-6.7V5.3h6.7Z"/>
        <path d="M297.9,34.4h-13.3l-2.2,6.4h-7.1l12-33.6h7.8l12,33.6h-7.1l-2.2-6.4ZM296,29.1l-4.8-14-4.8,14h9.7Z"/>
        <path d="M318.4,7.3v33.5h-6.7V7.3h6.7Z"/>
      </g>
      <path d="M30.5,3.1l-.5-1.2h-10.8l-.3.8c-.4,1.1-.9,2.2-1.3,3.3C12.1,20.5,6.5,34.9.9,49.4l-.9,2.3h10.7l.9-2.4c4.1-11.3,8.2-22.5,12.3-33.8,0,0,0,0,0,0l.7-2,.7,1.9s0,0,0,.1c1,2.7,2,5.4,3,8l5.2-12.9c-1-2.5-2-5-3-7.5h0Z"/>
      <path class="st1" d="M76.8,16.1c0,.1,0,.3,0,.5,0,2,0,3.9,0,5.9v9.2c0,2.7-.2,5.3-.8,8-.3,1.3-.9,2.3-2.2,2.8-3.3,1.3-7,1-8.6-3.3-1.2-3.2-2.5-6.3-3.8-9.5-3.5-8.9-7.1-17.7-10.7-26.6h0l-.5-1.2h-10.8l-.3.7c-.4,1.2-.9,2.3-1.3,3.4-5.6,14.3-11.1,28.6-16.7,43h0l-1,2.6h10.7l.3-.9h0c4.2-11.7,8.5-23.3,12.8-35h0s.8-2.3.8-2.3l.7,1.9s0,0,0,0c.1.3.2.6.4,1v.3h.1c3.4,9,6.7,18.1,10.4,27,1.4,3.5,3.9,5.8,7.4,6.9,2,.7,4.1,1,6.2,1.1,3.2,0,6.3-.5,9.2-2,4.8-2.5,6.7-6.7,7.2-11.8.2-1.6.2-3.1.2-4.6h0V15.2h-9.9v1Z"/>
      <rect class="st1" x="77" y="1.9" width="9.7" height="7.7"/>
    </g>
  </g>
</svg>