
<svg id="Layer_2" xmlns="http://www.w3.org/2000/svg" version="1.1" viewBox="0 0 131.2 119.7">
  <!-- Generator: Adobe Illustrator 29.8.1, SVG Export Plug-In . SVG Version: 2.1.1 Build 2)  -->
  <defs>
    <style>
      .st0 {
        isolation: isolate;
      }

      .st1 {
        fill: lime;
      }
    </style>
  </defs>
  <path d="M46.2,1.8l-.7-1.8h-16.3l-.5,1.3c-.6,1.7-1.3,3.4-1.9,5.1C18.4,28.1,9.9,50,1.4,71.8l-1.4,3.4h16.2l1.3-3.6c6.2-17,12.4-34.1,18.7-51.1,0,0,0,0,0,0l1.1-3,1.1,2.9s0,.1,0,.2c1.5,4,3,8.1,4.5,12.1l7.9-19.5c-1.5-3.8-3-7.6-4.6-11.4h0Z"/>
  <path class="st1" d="M116.2,21.5c0,.2,0,.5,0,.8,0,3,0,5.9,0,8.9v14c0,4-.3,8-1.2,12-.4,2-1.4,3.5-3.3,4.2-4.9,1.9-10.6,1.4-13.1-5-1.8-4.8-3.8-9.6-5.7-14.4-5.4-13.4-10.8-26.8-16.1-40.2h0l-.7-1.8h-16.3l-.4,1.1c-.6,1.7-1.3,3.5-2,5.2-8.4,21.7-16.9,43.3-25.3,65h0l-1.5,3.9h16.2l.5-1.3h0c6.4-17.6,12.9-35.3,19.3-52.9h0s1.3-3.6,1.3-3.6l1.1,3s0,0,0,.1c.2.5.4,1,.5,1.4l.2.5h0c5.1,13.7,10.1,27.4,15.7,40.9,2.2,5.2,5.8,8.7,11.2,10.5,3.1,1,6.2,1.6,9.4,1.6,4.9,0,9.6-.8,13.9-3.1,7.2-3.7,10.1-10.1,10.9-17.8.2-2.4.3-4.7.3-7h0v-27.5h-15v1.5h0Z"/>
  <rect class="st1" x="116.5" width="14.7" height="11.6"/>
  <g class="st0">
    <path d="M23.9,83v19.6h-4.8v-11.7l-4.4,11.7h-3.8l-4.4-11.8v11.8H1.7v-19.6h5.6l5.5,13.5,5.4-13.5h5.6Z"/>
    <path d="M42.7,87v15.5h-4.8v-2.1c-.5.7-1.1,1.2-2,1.7-.8.4-1.7.6-2.7.6s-2.2-.3-3.1-.8c-.9-.5-1.6-1.3-2.1-2.3-.5-1-.8-2.2-.8-3.5v-9.1h4.7v8.4c0,1,.3,1.8.8,2.4.5.6,1.3.9,2.2.9s1.7-.3,2.2-.9c.5-.6.8-1.4.8-2.4v-8.4h4.8Z"/>
    <path d="M50.8,81.9v20.6h-4.8v-20.6h4.8Z"/>
    <path d="M63,98.5v4h-2.4c-1.7,0-3.1-.4-4-1.3-1-.8-1.4-2.2-1.4-4.1v-6.2h-1.9v-4h1.9v-3.8h4.8v3.8h3.1v4h-3.1v6.2c0,.5.1.8.3,1,.2.2.6.3,1.1.3h1.7Z"/>
    <path d="M66,84.6c-.5-.5-.8-1.1-.8-1.8s.3-1.4.8-1.9,1.2-.7,2-.7,1.5.2,2,.7.8,1.1.8,1.9-.3,1.3-.8,1.8c-.5.5-1.2.7-2,.7s-1.5-.2-2-.7ZM70.4,87v15.5h-4.8v-15.5h4.8Z"/>
    <path d="M80.5,87.4c.8-.4,1.8-.7,2.9-.7s2.4.3,3.5,1c1,.7,1.9,1.6,2.5,2.8.6,1.2.9,2.6.9,4.2s-.3,3-.9,4.2c-.6,1.2-1.4,2.2-2.5,2.8-1,.7-2.2,1-3.5,1s-2-.2-2.9-.7c-.8-.4-1.5-1-1.9-1.7v9.6h-4.8v-23h4.8v2.2c.5-.7,1.1-1.3,1.9-1.8ZM84.4,91.9c-.7-.7-1.5-1-2.4-1s-1.8.3-2.4,1c-.7.7-1,1.6-1,2.8s.3,2.1,1,2.8,1.5,1,2.4,1,1.8-.3,2.4-1c.7-.7,1-1.6,1-2.8s-.3-2.1-1-2.8Z"/>
    <path d="M97.5,81.9v20.6h-4.8v-20.6h4.8Z"/>
    <path d="M113.1,99.1h-7.3l-1.2,3.5h-5l7.1-19.6h5.5l7.1,19.6h-5l-1.2-3.5ZM111.9,95.4l-2.4-7.2-2.4,7.2h4.8Z"/>
    <path d="M126.3,83v19.6h-4.8v-19.6h4.8Z"/>
  </g>
</svg>